<svg xmlns="http://www.w3.org/2000/svg" width="29.36" height="29.354" viewBox="0 0 29.36 29.354">
  <g id="Group_30" data-name="Group 30" transform="translate(-1246.323 -1168.164)">
    <g id="Group_29" data-name="Group 29" transform="translate(1246.323 1168.164)">
      <path id="Path_39" data-name="Path 39" d="M1317.679,1168.164c.588.111,1.192.172,1.763.34a9.789,9.789,0,0,1,7.262,7.7,10.036,10.036,0,1,1-11.814-7.85c.391-.079.788-.128,1.183-.191Zm-6.046,16.472a8.343,8.343,0,0,0,4.385,1.822c0-.281,0-.537,0-.793a.859.859,0,1,1,1.717.008c0,.256,0,.511,0,.787a8.313,8.313,0,0,0,4.377-1.819c-.189-.184-.37-.352-.542-.529a.865.865,0,1,1,1.222-1.222c.176.173.334.364.514.562a8.353,8.353,0,0,0,1.835-4.4c-.275,0-.531,0-.787,0a.858.858,0,1,1-.008-1.716c.256,0,.512,0,.794,0a8.287,8.287,0,0,0-1.814-4.371c-.2.2-.368.381-.547.551a.865.865,0,1,1-1.213-1.231c.173-.177.362-.339.562-.524a8.279,8.279,0,0,0-4.392-1.827c0,.282,0,.529,0,.776a.859.859,0,1,1-1.717-.006c0-.253,0-.505,0-.775a8.372,8.372,0,0,0-4.389,1.83c.2.182.376.339.543.509a.866.866,0,1,1-1.222,1.222c-.174-.17-.337-.351-.516-.539a8.325,8.325,0,0,0-1.82,4.384c.277,0,.524,0,.771,0a.859.859,0,1,1,.007,1.717c-.255,0-.509,0-.781,0a8.345,8.345,0,0,0,1.831,4.391c.185-.2.346-.388.524-.561a.865.865,0,1,1,1.232,1.212C1312.026,1184.277,1311.839,1184.441,1311.633,1184.636Z" transform="translate(-1302.196 -1168.164)" fill="#fff"/>
      <path id="Path_40" data-name="Path 40" d="M1560.493,1460.772a.346.346,0,0,0-.046.072.9.9,0,0,1-.783.662.936.936,0,0,1-.921-.464q-.67-.964-1.334-1.932c-.292-.422-.583-.843-.931-1.257v.269c0,.841,0,1.681,0,2.522a.859.859,0,0,1-.869.929.848.848,0,0,1-.85-.915q0-2.809,0-5.617a.862.862,0,0,1,1.6-.5c.715,1.026,1.423,2.057,2.133,3.085.059.086.12.17.23.326.007-.161.014-.247.014-.333,0-.841-.011-1.681-.013-2.522a.864.864,0,0,1,.846-.978c.533-.006.862.368.875.979.012.552.035,1.1.053,1.657Z" transform="translate(-1531.133 -1432.222)" fill="#fff"/>
      <path id="Path_41" data-name="Path 41" d="M1331.6,1457.841a3.729,3.729,0,1,1,3.7,3.732A3.714,3.714,0,0,1,1331.6,1457.841Zm3.721-2a2.007,2.007,0,1,0,2.009,2A2.015,2.015,0,0,0,1335.321,1455.841Z" transform="translate(-1325.068 -1432.221)" fill="#fff"/>
      <path id="Path_42" data-name="Path 42" d="M1443.192,1457.854a3.728,3.728,0,1,1,3.74,3.718A3.716,3.716,0,0,1,1443.192,1457.854Zm1.723-.019a2,2,0,1,0,2.013-1.995A2.02,2.02,0,0,0,1444.914,1457.836Z" transform="translate(-1428.114 -1432.221)" fill="#fff"/>
      <path id="Path_43" data-name="Path 43" d="M1248.976,1461.566a3.421,3.421,0,0,1-2.329-1.024.881.881,0,0,1-.073-1.3.87.87,0,0,1,1.276.053,1.734,1.734,0,0,0,1.624.493.869.869,0,0,0,.308-.142c.327-.231.338-.517,0-.73a5.84,5.84,0,0,0-.827-.382c-.359-.152-.727-.288-1.085-.443a1.994,1.994,0,0,1-.428-3.441,3.12,3.12,0,0,1,3.83.251.881.881,0,0,1,.07,1.258.87.87,0,0,1-1.255.01,1.341,1.341,0,0,0-1.393-.245.531.531,0,0,0-.291.333c-.017.076.151.238.268.29.5.218,1.011.4,1.508.614a2.365,2.365,0,0,1,1.536,1.684,2.06,2.06,0,0,1-.7,2.036A2.776,2.776,0,0,1,1248.976,1461.566Z" transform="translate(-1246.323 -1432.212)" fill="#fff"/>
      <path id="Path_44" data-name="Path 44" d="M1426.775,1238.413q0-.945,0-1.891a.862.862,0,0,1,.851-.972c.531,0,.866.377.866.986,0,1.022.008,2.044-.006,3.066a.473.473,0,0,0,.288.486c.76.419,1.508.861,2.257,1.3a.827.827,0,0,1,.434.866.745.745,0,0,1-.593.693,1.086,1.086,0,0,1-.681-.068c-1-.548-1.99-1.132-2.98-1.706a.838.838,0,0,1-.438-.782C1426.778,1239.731,1426.775,1239.072,1426.775,1238.413Z" transform="translate(-1412.953 -1230.389)" fill="#fff"/>
    </g>
  </g>
</svg>
