<svg xmlns="http://www.w3.org/2000/svg" width="20.149" height="29.354" viewBox="0 0 20.149 29.354">
  <g id="Group_33" data-name="Group 33" transform="translate(-1765.422 -1168.164)">
    <g id="Group_31" data-name="Group 31" transform="translate(1765.422 1168.164)">
      <path id="Path_45" data-name="Path 45" d="M1776.3,1168.164c.59.111,1.194.172,1.767.341a9.813,9.813,0,0,1,7.28,7.719,10.061,10.061,0,1,1-11.843-7.869c.392-.079.79-.128,1.186-.191Zm-6.061,16.513a8.364,8.364,0,0,0,4.4,1.827c0-.282,0-.539,0-.8a.861.861,0,1,1,1.721.008c0,.256,0,.513,0,.788a8.332,8.332,0,0,0,4.388-1.823c-.189-.184-.371-.353-.543-.53a.867.867,0,1,1,1.225-1.225c.177.173.335.365.515.563a8.371,8.371,0,0,0,1.84-4.407c-.276,0-.532,0-.788,0a.861.861,0,1,1-.008-1.721c.257,0,.514,0,.8,0a8.307,8.307,0,0,0-1.818-4.382c-.2.2-.368.381-.549.552a.867.867,0,1,1-1.216-1.234c.173-.178.363-.34.563-.525a8.3,8.3,0,0,0-4.4-1.831c0,.283,0,.531,0,.778a.861.861,0,1,1-1.721-.006c0-.253,0-.507,0-.777a8.391,8.391,0,0,0-4.4,1.835c.2.183.377.34.544.51a.868.868,0,1,1-1.225,1.225c-.174-.171-.338-.352-.518-.54a8.345,8.345,0,0,0-1.824,4.394c.278,0,.525,0,.773,0a.861.861,0,1,1,.007,1.721c-.255,0-.51,0-.783,0a8.368,8.368,0,0,0,1.836,4.4c.185-.2.347-.389.525-.562a.867.867,0,1,1,1.235,1.215C1770.63,1184.316,1770.443,1184.481,1770.237,1184.677Z" transform="translate(-1765.422 -1168.164)" fill="#fff"/>
      <path id="Path_46" data-name="Path 46" d="M1885.367,1238.42q0-.948,0-1.9a.864.864,0,0,1,.854-.974c.532,0,.868.378.869.988,0,1.025.008,2.049-.006,3.074a.475.475,0,0,0,.289.488c.762.42,1.511.863,2.262,1.3a.829.829,0,0,1,.436.869.747.747,0,0,1-.594.694,1.09,1.09,0,0,1-.683-.068c-1.007-.55-1.995-1.135-2.987-1.71a.84.84,0,0,1-.44-.783C1885.37,1239.742,1885.367,1239.081,1885.367,1238.42Z" transform="translate(-1876.157 -1230.376)" fill="#fff"/>
    </g>
    <g id="Group_32" data-name="Group 32" transform="translate(1767.082 1188.872)">
      <path id="Path_47" data-name="Path 47" d="M1788.157,1444.042a.544.544,0,0,0,.256-.415,11.091,11.091,0,0,1-1.078.741.517.517,0,0,0-.271.333.211.211,0,0,0-.015.063.007.007,0,0,0,.007.007q.141-.111.385-.267Q1787.894,1444.22,1788.157,1444.042Z" transform="translate(-1787.049 -1443.186)" fill="#fff"/>
      <path id="Path_48" data-name="Path 48" d="M1787.327,1438.629a.6.6,0,0,0-.278.334v.074a.319.319,0,0,0,.2-.1q.159-.148.185-.167.367-.222.723-.46a.5.5,0,0,0,.248-.419v-.007a3.355,3.355,0,0,1-.426.319Z" transform="translate(-1787.049 -1437.884)" fill="#fff"/>
      <path id="Path_49" data-name="Path 49" d="M1820.436,1534.685a2.565,2.565,0,0,0-.382-.313q-.067,0-.391.3t-.324.365q0,.048.326.309a1.339,1.339,0,0,0,.389.261,1.182,1.182,0,0,0,.408-.256q.326-.256.326-.322A2.052,2.052,0,0,0,1820.436,1534.685Z" transform="translate(-1816.86 -1526.964)" fill="#fff"/>
      <path id="Path_50" data-name="Path 50" d="M1880.663,1531.041q-.181.193-.215.193a.925.925,0,0,1-.348-.17,1.616,1.616,0,0,1-.319-.248q-.341.411-.541.623a1.647,1.647,0,0,0,.352.245,2.345,2.345,0,0,0,.393.2q.2-.23.389-.411a3.906,3.906,0,0,0,.372.233,3.189,3.189,0,0,0,.361.2q.1,0,.534-.637l-.745-.463Q1880.874,1530.819,1880.663,1531.041Z" transform="translate(-1872.162 -1523.666)" fill="#fff"/>
      <path id="Path_51" data-name="Path 51" d="M1799.109,1467.91q.1-.467.159-.856l.007-.063a3.873,3.873,0,0,0,.044-.537,1.589,1.589,0,0,0-.03-.319,3.43,3.43,0,0,0-.675-1.267q-.411.727-.548.919a2.593,2.593,0,0,1,.389.589,3.869,3.869,0,0,1,.219.5h-4.8a.509.509,0,0,1-.348-.135.341.341,0,0,1-.122-.324,5.619,5.619,0,0,0,.074-1.164,4.169,4.169,0,0,0-.326.382q-.267.326-.326.415a2.958,2.958,0,0,1-.082.826h-1.768a.97.97,0,0,1-.419-.044q-.182-1.746-.334-3.461-.571.76-.615.83.267,3.665.311,3.709h2.572q.219-.385.363-.645.159.645.7.645h5.555Z" transform="translate(-1789.411 -1461.413)" fill="#fff"/>
      <path id="Path_52" data-name="Path 52" d="M1964.076,1458.3q-.2.185-.237.185a1.056,1.056,0,0,1-.378-.167,1.915,1.915,0,0,1-.359-.241q-.378.4-.6.615a2.068,2.068,0,0,0,.345.226,1.753,1.753,0,0,0,.478.211q.219-.226.422-.408l.415.222a3.094,3.094,0,0,0,.4.2q.1,0,.593-.63l-.826-.456Q1964.3,1458.083,1964.076,1458.3Z" transform="translate(-1949.03 -1456.512)" fill="#fff"/>
      <path id="Path_53" data-name="Path 53" d="M1910,1476.017a1.429,1.429,0,0,0-1.034.648,1.694,1.694,0,0,0-.478.963.561.561,0,0,0,.308.482,1.047,1.047,0,0,0,.574.171,1.023,1.023,0,0,0,.675-.215l.226-.263a.653.653,0,0,1,.152.348,1.7,1.7,0,0,1,.056.4h-3.046a.864.864,0,0,1-.6-.241,2.336,2.336,0,0,1-.372-.508,2.662,2.662,0,0,0-.317-.463q-.326.508-.541.886l.289.352a1.039,1.039,0,0,1,.282.508q0,.2-.311.471-.344.289-.522.434a1.855,1.855,0,0,1-1.186.5,1.22,1.22,0,0,1-.63-.185l-.311-.189c-.02,0-.03.023-.03.071q0,.211.863.608a3.445,3.445,0,0,0,1.119.378q.482,0,1.015-.737a3.739,3.739,0,0,0,.541-.986.47.47,0,0,0,.271.115,1.214,1.214,0,0,0,.182.022h3.676a2.117,2.117,0,0,0,.167-.723q.074-.537.078-.645a3.657,3.657,0,0,0-.271-1.3Q1910.484,1476.017,1910,1476.017Zm-.293,1.326a.71.71,0,0,1-.193-.026,1.737,1.737,0,0,1-.345-.222.526.526,0,0,1,.337-.248q.107-.011.285.167a1.779,1.779,0,0,1,.215.271A.856.856,0,0,1,1909.706,1477.344Z" transform="translate(-1894.264 -1473.089)" fill="#fff"/>
    </g>
  </g>
</svg>
